# xmcd CD database file
#
# Track frame offsets:
#	183
#	14683
#	27625
#	41210
#	55878
#	72288
#	85338
#	99193
#	113905
#	123555
#	137920
#	151333
#	167235
#	178488
#	193148
#	207805
#	219390
#	235363
#	247908
#	261518
#
# Disc length: 3659 seconds
#
# Revision: 2
# Processed by: cddbd v1.5.1PL2 Copyright (c) Steve Scherf et al.
# Submitted via: CDex 1.51
#
DISCID=320e4914
DTITLE=Cole Porter - You're The Top - Cole Porter Songs
DYEAR=1992
DGENRE=Jazz
TTITLE0=Paul Whiteman and His Orchestra - Let's Do It, Let's Fall in Love
TTITLE1=Irving Aaronson and His Commanders - Let's Misbehave
TTITLE2=Marlene Dietrich - You Do Something to Me
TTITLE3=Artie Shaw and His Orchestra - What Is This Thing Called Love?
TTITLE4=Fred Waring's Pennsylvanians - Love For Sale
TTITLE5=Leslie Hutchinson (Hutch) - Night And Day
TTITLE6=Getrude Lawrence - The Physician
TTITLE7=Lew Stone and His Band - How Could I Be Wrong?
TTITLE8=Bing Crosby and Ethel Merman - You're The Top
TTITLE9=Nat Gonella and His Georgians - Blow, Gabriel, Blow
TTITLE10=Jay Wilbur and His Band - Miss Otis Regrets
TTITLE11=Joe Loss and His Band - Begin The Beguine
TTITLE12=Frances Langford - Rap Tap On Wood
TTITLE13=Billie Holiday With Teddy Wilson and His Orchestra - Easy To Love
TTITLE14=Virginia Bruce - I've Hot You Under My Skin
TTITLE15=Frances Day - It's De-Lovely
TTITLE16=Jack Marshard and His Orchestra - In The Still Of The Night
TTITLE17=Leo Reisman and His Orchestra - Rosalie
TTITLE18=Mary Martin - My Heart Belongs To Daddy
TTITLE19=Ethel Merman and Bert Lahr - Friendship
EXTD=Compilation from various artists - The music and songs of Cole Porter YEAR: 1992
EXTT0=
EXTT1=
EXTT2=
EXTT3=
EXTT4=
EXTT5=
EXTT6=
EXTT7=
EXTT8=
EXTT9=
EXTT10=
EXTT11=
EXTT12=
EXTT13=
EXTT14=
EXTT15=
EXTT16=
EXTT17=
EXTT18=
EXTT19=
PLAYORDER=
